# xmcd CD database file
#
# Track frame offsets:
#	150
#	12465
#	29277
#	45892
#	69005
#	87005
#	114037
#	126712
#	139965
#	154835
#	184075
#	200357
#	224132
#	240145
#	258567
#
# Disc length: 3656 seconds
#
# Revision: 0
# Processed by: cddbd v1.4PL0 Copyright (c) Steve Scherf et al.
# Submitted via: CDex 1.50beta9
#
DISCID=c90e460f
DTITLE=Dave Van Ronk - Sweet and Lowdown
DYEAR=2001
DGENRE=Jazz
TTITLE0=I'll See You In My Dreams
TTITLE1=Comes Love
TTITLE2=Zoot Suit
TTITLE3=As Time Goes By
TTITLE4=Some Of These Days
TTITLE5=Thanks For The Memory
TTITLE6=Puttin On The Ritz
TTITLE7=Blues In The News
TTITLE8=I'd Rather Charleston
TTITLE9=I Can't Get Started
TTITLE10=Sweet And Lowdown
TTITLE11=I Wonder Where Our Love Has Gone
TTITLE12=Your Feet's Too Big
TTITLE13=Bye Bye Blackbird
TTITLE14=A Cottage For Sale
EXTD=YEAR: 2001
EXTT0=
EXTT1=
EXTT2=
EXTT3=
EXTT4=
EXTT5=
EXTT6=
EXTT7=
EXTT8=
EXTT9=
EXTT10=
EXTT11=
EXTT12=
EXTT13=
EXTT14=
PLAYORDER=
